<?xml version="1.0" encoding="UTF-8" standalone="no"?>
<!DOCTYPE svg PUBLIC "-//W3C//DTD SVG 1.1//EN"
 "http://www.w3.org/Graphics/SVG/1.1/DTD/svg11.dtd">
<!-- Generated by graphviz version 2.36.0 (20140111.2315)
 -->
<!-- Title: controllers_diagram Pages: 1 -->
<svg width="665pt" height="652pt"
 viewBox="0.00 0.00 665.00 652.00" xmlns="http://www.w3.org/2000/svg" xmlns:xlink="http://www.w3.org/1999/xlink">
<g id="graph0" class="graph" transform="scale(1 1) rotate(0) translate(4 648)">
<title>controllers_diagram</title>
<polygon fill="none" stroke="none" points="-4,4 -4,-648 661,-648 661,4 -4,4"/>
<!-- _diagram_info -->
<g id="node1" class="node"><title>_diagram_info</title>
<text text-anchor="start" x="408" y="-503.6" font-family="Times,serif" font-size="13.00">Controllers diagram</text>
<text text-anchor="start" x="408" y="-489.6" font-family="Times,serif" font-size="13.00">Date: Apr 02 2017 &#45; 16:13</text>
<text text-anchor="start" x="408" y="-475.6" font-family="Times,serif" font-size="13.00">Migration version: 20170326213826</text>
<text text-anchor="start" x="408" y="-461.6" font-family="Times,serif" font-size="13.00">Generated by RailRoady 1.5.2</text>
<text text-anchor="start" x="408" y="-447.6" font-family="Times,serif" font-size="13.00">http://railroady.prestonlee.com</text>
</g>
<!-- ApplicationController -->
<g id="node2" class="node"><title>ApplicationController</title>
<path fill="none" stroke="black" d="M372,-300.5C372,-300.5 601,-300.5 601,-300.5 607,-300.5 613,-306.5 613,-312.5 613,-312.5 613,-396.5 613,-396.5 613,-402.5 607,-408.5 601,-408.5 601,-408.5 372,-408.5 372,-408.5 366,-408.5 360,-402.5 360,-396.5 360,-396.5 360,-312.5 360,-312.5 360,-306.5 366,-300.5 372,-300.5"/>
<text text-anchor="middle" x="486.5" y="-393.3" font-family="Times,serif" font-size="14.00">ApplicationController</text>
<polyline fill="none" stroke="black" points="360,-385.5 613,-385.5 "/>
<polyline fill="none" stroke="black" points="360,-361.5 613,-361.5 "/>
<text text-anchor="start" x="368" y="-346.3" font-family="Times,serif" font-size="14.00">configure_permitted_parameters</text>
<text text-anchor="start" x="368" y="-331.3" font-family="Times,serif" font-size="14.00">user_not_authorized</text>
<polyline fill="none" stroke="black" points="360,-323.5 613,-323.5 "/>
<text text-anchor="start" x="368" y="-308.3" font-family="Times,serif" font-size="14.00">_layout</text>
</g>
<!-- AuctionsController -->
<g id="node3" class="node"><title>AuctionsController</title>
<path fill="none" stroke="black" d="M172,-140.5C172,-140.5 301,-140.5 301,-140.5 307,-140.5 313,-146.5 313,-152.5 313,-152.5 313,-401.5 313,-401.5 313,-407.5 307,-413.5 301,-413.5 301,-413.5 172,-413.5 172,-413.5 166,-413.5 160,-407.5 160,-401.5 160,-401.5 160,-152.5 160,-152.5 160,-146.5 166,-140.5 172,-140.5"/>
<text text-anchor="middle" x="236.5" y="-398.3" font-family="Times,serif" font-size="14.00">AuctionsController</text>
<polyline fill="none" stroke="black" points="160,-390.5 313,-390.5 "/>
<text text-anchor="start" x="168" y="-375.3" font-family="Times,serif" font-size="14.00">bid</text>
<text text-anchor="start" x="168" y="-360.3" font-family="Times,serif" font-size="14.00">create</text>
<text text-anchor="start" x="168" y="-345.3" font-family="Times,serif" font-size="14.00">delete</text>
<text text-anchor="start" x="168" y="-330.3" font-family="Times,serif" font-size="14.00">edit</text>
<text text-anchor="start" x="168" y="-315.3" font-family="Times,serif" font-size="14.00">index</text>
<text text-anchor="start" x="168" y="-300.3" font-family="Times,serif" font-size="14.00">new</text>
<text text-anchor="start" x="168" y="-285.3" font-family="Times,serif" font-size="14.00">pay</text>
<text text-anchor="start" x="168" y="-270.3" font-family="Times,serif" font-size="14.00">save</text>
<text text-anchor="start" x="168" y="-255.3" font-family="Times,serif" font-size="14.00">ship</text>
<text text-anchor="start" x="168" y="-240.3" font-family="Times,serif" font-size="14.00">shipping</text>
<text text-anchor="start" x="168" y="-225.3" font-family="Times,serif" font-size="14.00">show</text>
<text text-anchor="start" x="168" y="-210.3" font-family="Times,serif" font-size="14.00">wins</text>
<polyline fill="none" stroke="black" points="160,-202.5 313,-202.5 "/>
<polyline fill="none" stroke="black" points="160,-178.5 313,-178.5 "/>
<text text-anchor="start" x="168" y="-163.3" font-family="Times,serif" font-size="14.00">_layout</text>
<text text-anchor="start" x="168" y="-148.3" font-family="Times,serif" font-size="14.00">auction_params</text>
</g>
<!-- ManageController -->
<g id="node4" class="node"><title>ManageController</title>
<path fill="none" stroke="black" d="M232,-460.5C232,-460.5 356,-460.5 356,-460.5 362,-460.5 368,-466.5 368,-472.5 368,-472.5 368,-631.5 368,-631.5 368,-637.5 362,-643.5 356,-643.5 356,-643.5 232,-643.5 232,-643.5 226,-643.5 220,-637.5 220,-631.5 220,-631.5 220,-472.5 220,-472.5 220,-466.5 226,-460.5 232,-460.5"/>
<text text-anchor="middle" x="294" y="-628.3" font-family="Times,serif" font-size="14.00">ManageController</text>
<polyline fill="none" stroke="black" points="220,-620.5 368,-620.5 "/>
<text text-anchor="start" x="228" y="-605.3" font-family="Times,serif" font-size="14.00">block</text>
<text text-anchor="start" x="228" y="-590.3" font-family="Times,serif" font-size="14.00">delete</text>
<text text-anchor="start" x="228" y="-575.3" font-family="Times,serif" font-size="14.00">edit</text>
<text text-anchor="start" x="228" y="-560.3" font-family="Times,serif" font-size="14.00">index</text>
<text text-anchor="start" x="228" y="-545.3" font-family="Times,serif" font-size="14.00">role</text>
<text text-anchor="start" x="228" y="-530.3" font-family="Times,serif" font-size="14.00">save</text>
<polyline fill="none" stroke="black" points="220,-522.5 368,-522.5 "/>
<polyline fill="none" stroke="black" points="220,-498.5 368,-498.5 "/>
<text text-anchor="start" x="228" y="-483.3" font-family="Times,serif" font-size="14.00">_layout</text>
<text text-anchor="start" x="228" y="-468.3" font-family="Times,serif" font-size="14.00">manage_params</text>
</g>
<!-- RegistrationsController -->
<g id="node5" class="node"><title>RegistrationsController</title>
<path fill="none" stroke="black" d="M12,-520.5C12,-520.5 174,-520.5 174,-520.5 180,-520.5 186,-526.5 186,-532.5 186,-532.5 186,-601.5 186,-601.5 186,-607.5 180,-613.5 174,-613.5 174,-613.5 12,-613.5 12,-613.5 6,-613.5 -2.84217e-14,-607.5 -2.84217e-14,-601.5 -2.84217e-14,-601.5 -2.84217e-14,-532.5 -2.84217e-14,-532.5 -2.84217e-14,-526.5 6,-520.5 12,-520.5"/>
<text text-anchor="middle" x="93" y="-598.3" font-family="Times,serif" font-size="14.00">RegistrationsController</text>
<polyline fill="none" stroke="black" points="-2.84217e-14,-590.5 186,-590.5 "/>
<polyline fill="none" stroke="black" points="-2.84217e-14,-566.5 186,-566.5 "/>
<text text-anchor="start" x="8" y="-551.3" font-family="Times,serif" font-size="14.00">update_resource</text>
<polyline fill="none" stroke="black" points="-2.84217e-14,-543.5 186,-543.5 "/>
<text text-anchor="start" x="8" y="-528.3" font-family="Times,serif" font-size="14.00">_layout</text>
</g>
<!-- StaticPagesController -->
<g id="node6" class="node"><title>StaticPagesController</title>
<path fill="none" stroke="black" d="M372,-0.5C372,-0.5 522,-0.5 522,-0.5 528,-0.5 534,-6.5 534,-12.5 534,-12.5 534,-111.5 534,-111.5 534,-117.5 528,-123.5 522,-123.5 522,-123.5 372,-123.5 372,-123.5 366,-123.5 360,-117.5 360,-111.5 360,-111.5 360,-12.5 360,-12.5 360,-6.5 366,-0.5 372,-0.5"/>
<text text-anchor="middle" x="447" y="-108.3" font-family="Times,serif" font-size="14.00">StaticPagesController</text>
<polyline fill="none" stroke="black" points="360,-100.5 534,-100.5 "/>
<text text-anchor="start" x="368" y="-85.3" font-family="Times,serif" font-size="14.00">buy</text>
<text text-anchor="start" x="368" y="-70.3" font-family="Times,serif" font-size="14.00">index</text>
<text text-anchor="start" x="368" y="-55.3" font-family="Times,serif" font-size="14.00">premium</text>
<polyline fill="none" stroke="black" points="360,-47.5 534,-47.5 "/>
<polyline fill="none" stroke="black" points="360,-23.5 534,-23.5 "/>
<text text-anchor="start" x="368" y="-8.3" font-family="Times,serif" font-size="14.00">_layout</text>
</g>
<!-- Users::OmniauthCallbacksController -->
<g id="node7" class="node"><title>Users::OmniauthCallbacksController</title>
<path fill="none" stroke="black" d="M372,-160.5C372,-160.5 629,-160.5 629,-160.5 635,-160.5 641,-166.5 641,-172.5 641,-172.5 641,-256.5 641,-256.5 641,-262.5 635,-268.5 629,-268.5 629,-268.5 372,-268.5 372,-268.5 366,-268.5 360,-262.5 360,-256.5 360,-256.5 360,-172.5 360,-172.5 360,-166.5 366,-160.5 372,-160.5"/>
<text text-anchor="middle" x="500.5" y="-253.3" font-family="Times,serif" font-size="14.00">Users::OmniauthCallbacksController</text>
<polyline fill="none" stroke="black" points="360,-245.5 641,-245.5 "/>
<text text-anchor="start" x="368" y="-230.3" font-family="Times,serif" font-size="14.00">facebook</text>
<text text-anchor="start" x="368" y="-215.3" font-family="Times,serif" font-size="14.00">failure</text>
<polyline fill="none" stroke="black" points="360,-207.5 641,-207.5 "/>
<polyline fill="none" stroke="black" points="360,-183.5 641,-183.5 "/>
<text text-anchor="start" x="368" y="-168.3" font-family="Times,serif" font-size="14.00">_layout</text>
</g>
</g>
</svg>
