<?xml version="1.0" encoding="UTF-8" standalone="no"?>
<!DOCTYPE svg PUBLIC "-//W3C//DTD SVG 1.1//EN"
 "http://www.w3.org/Graphics/SVG/1.1/DTD/svg11.dtd">
<!-- Generated by graphviz version 2.36.0 (20140111.2315)
 -->
<!-- Title: models_diagram Pages: 1 -->
<svg width="756pt" height="762pt"
 viewBox="0.00 0.00 756.00 762.00" xmlns="http://www.w3.org/2000/svg" xmlns:xlink="http://www.w3.org/1999/xlink">
<g id="graph0" class="graph" transform="scale(1 1) rotate(0) translate(4 758)">
<title>models_diagram</title>
<polygon fill="none" stroke="none" points="-4,4 -4,-758 752,-758 752,4 -4,4"/>
<!-- _diagram_info -->
<g id="node1" class="node"><title>_diagram_info</title>
<text text-anchor="start" x="7.5" y="-604.6" font-family="Times,serif" font-size="13.00">Models diagram</text>
<text text-anchor="start" x="7.5" y="-590.6" font-family="Times,serif" font-size="13.00">Date: Apr 02 2017 &#45; 16:13</text>
<text text-anchor="start" x="7.5" y="-576.6" font-family="Times,serif" font-size="13.00">Migration version: 20170326213826</text>
<text text-anchor="start" x="7.5" y="-562.6" font-family="Times,serif" font-size="13.00">Generated by RailRoady 1.5.2</text>
<text text-anchor="start" x="7.5" y="-548.6" font-family="Times,serif" font-size="13.00">http://railroady.prestonlee.com</text>
</g>
<!-- ApplicationRecord -->
<g id="node2" class="node"><title>ApplicationRecord</title>
<ellipse fill="none" stroke="black" cx="371" cy="-580" rx="96.2631" ry="18"/>
<text text-anchor="middle" x="371" y="-576.3" font-family="Times,serif" font-size="14.00">ApplicationRecord</text>
</g>
<!-- Auction -->
<g id="node3" class="node"><title>Auction</title>
<path fill="none" stroke="black" d="M478,-158.5C478,-158.5 636,-158.5 636,-158.5 642,-158.5 648,-164.5 648,-170.5 648,-170.5 648,-357.5 648,-357.5 648,-363.5 642,-369.5 636,-369.5 636,-369.5 478,-369.5 478,-369.5 472,-369.5 466,-363.5 466,-357.5 466,-357.5 466,-170.5 466,-170.5 466,-164.5 472,-158.5 478,-158.5"/>
<text text-anchor="middle" x="557" y="-354.3" font-family="Times,serif" font-size="14.00">Auction</text>
<polyline fill="none" stroke="black" points="466,-346.5 648,-346.5 "/>
<text text-anchor="start" x="474" y="-331.3" font-family="Times,serif" font-size="14.00">id :INTEGER</text>
<text text-anchor="start" x="474" y="-316.3" font-family="Times,serif" font-size="14.00">name :varchar</text>
<text text-anchor="start" x="474" y="-301.3" font-family="Times,serif" font-size="14.00">created_at :datetime</text>
<text text-anchor="start" x="474" y="-286.3" font-family="Times,serif" font-size="14.00">updated_at :datetime</text>
<text text-anchor="start" x="474" y="-271.3" font-family="Times,serif" font-size="14.00">photo :varchar</text>
<text text-anchor="start" x="474" y="-256.3" font-family="Times,serif" font-size="14.00">finish_at :datetime</text>
<text text-anchor="start" x="474" y="-241.3" font-family="Times,serif" font-size="14.00">user_id :integer</text>
<text text-anchor="start" x="474" y="-226.3" font-family="Times,serif" font-size="14.00">top_price :decimal(8,2)</text>
<text text-anchor="start" x="474" y="-211.3" font-family="Times,serif" font-size="14.00">paid :boolean</text>
<text text-anchor="start" x="474" y="-196.3" font-family="Times,serif" font-size="14.00">shipped :boolean</text>
<text text-anchor="start" x="474" y="-181.3" font-family="Times,serif" font-size="14.00">special :boolean</text>
<text text-anchor="start" x="474" y="-166.3" font-family="Times,serif" font-size="14.00">premium :boolean</text>
</g>
<!-- Bid -->
<g id="node4" class="node"><title>Bid</title>
<path fill="none" stroke="black" d="M543,-0.5C543,-0.5 689,-0.5 689,-0.5 695,-0.5 701,-6.5 701,-12.5 701,-12.5 701,-109.5 701,-109.5 701,-115.5 695,-121.5 689,-121.5 689,-121.5 543,-121.5 543,-121.5 537,-121.5 531,-115.5 531,-109.5 531,-109.5 531,-12.5 531,-12.5 531,-6.5 537,-0.5 543,-0.5"/>
<text text-anchor="middle" x="616" y="-106.3" font-family="Times,serif" font-size="14.00">Bid</text>
<polyline fill="none" stroke="black" points="531,-98.5 701,-98.5 "/>
<text text-anchor="start" x="539" y="-83.3" font-family="Times,serif" font-size="14.00">id :INTEGER</text>
<text text-anchor="start" x="539" y="-68.3" font-family="Times,serif" font-size="14.00">user_id :integer</text>
<text text-anchor="start" x="539" y="-53.3" font-family="Times,serif" font-size="14.00">auction_id :integer</text>
<text text-anchor="start" x="539" y="-38.3" font-family="Times,serif" font-size="14.00">price :decimal(8,2)</text>
<text text-anchor="start" x="539" y="-23.3" font-family="Times,serif" font-size="14.00">created_at :datetime</text>
<text text-anchor="start" x="539" y="-8.3" font-family="Times,serif" font-size="14.00">updated_at :datetime</text>
</g>
<!-- Auction&#45;&gt;Bid -->
<g id="edge1" class="edge"><title>Auction&#45;&gt;Bid</title>
<path fill="none" stroke="#86e899" d="M590.043,-150.43C591.946,-143.947 593.829,-137.532 595.66,-131.295"/>
<ellipse fill="none" stroke="#86e899" cx="588.836" cy="-154.541" rx="4.00001" ry="4.00001"/>
<polygon fill="#86e899" stroke="#86e899" points="595.672,-131.251 602.807,-122.924 597.081,-126.454 598.489,-121.656 598.489,-121.656 598.489,-121.656 597.081,-126.454 594.171,-120.389 595.672,-131.251 595.672,-131.251"/>
</g>
<!-- User -->
<g id="node5" class="node"><title>User</title>
<path fill="none" stroke="black" d="M498,-407C498,-407 736,-407 736,-407 742,-407 748,-413 748,-419 748,-419 748,-741 748,-741 748,-747 742,-753 736,-753 736,-753 498,-753 498,-753 492,-753 486,-747 486,-741 486,-741 486,-419 486,-419 486,-413 492,-407 498,-407"/>
<text text-anchor="middle" x="617" y="-737.8" font-family="Times,serif" font-size="14.00">User</text>
<polyline fill="none" stroke="black" points="486,-730 748,-730 "/>
<text text-anchor="start" x="494" y="-714.8" font-family="Times,serif" font-size="14.00">id :INTEGER</text>
<text text-anchor="start" x="494" y="-699.8" font-family="Times,serif" font-size="14.00">email :varchar</text>
<text text-anchor="start" x="494" y="-684.8" font-family="Times,serif" font-size="14.00">encrypted_password :varchar</text>
<text text-anchor="start" x="494" y="-669.8" font-family="Times,serif" font-size="14.00">reset_password_token :varchar</text>
<text text-anchor="start" x="494" y="-654.8" font-family="Times,serif" font-size="14.00">reset_password_sent_at :datetime</text>
<text text-anchor="start" x="494" y="-639.8" font-family="Times,serif" font-size="14.00">remember_created_at :datetime</text>
<text text-anchor="start" x="494" y="-624.8" font-family="Times,serif" font-size="14.00">sign_in_count :integer</text>
<text text-anchor="start" x="494" y="-609.8" font-family="Times,serif" font-size="14.00">current_sign_in_at :datetime</text>
<text text-anchor="start" x="494" y="-594.8" font-family="Times,serif" font-size="14.00">last_sign_in_at :datetime</text>
<text text-anchor="start" x="494" y="-579.8" font-family="Times,serif" font-size="14.00">current_sign_in_ip :varchar</text>
<text text-anchor="start" x="494" y="-564.8" font-family="Times,serif" font-size="14.00">last_sign_in_ip :varchar</text>
<text text-anchor="start" x="494" y="-549.8" font-family="Times,serif" font-size="14.00">created_at :datetime</text>
<text text-anchor="start" x="494" y="-534.8" font-family="Times,serif" font-size="14.00">updated_at :datetime</text>
<text text-anchor="start" x="494" y="-519.8" font-family="Times,serif" font-size="14.00">name :varchar</text>
<text text-anchor="start" x="494" y="-504.8" font-family="Times,serif" font-size="14.00">balance :decimal(8,2)</text>
<text text-anchor="start" x="494" y="-489.8" font-family="Times,serif" font-size="14.00">provider :varchar</text>
<text text-anchor="start" x="494" y="-474.8" font-family="Times,serif" font-size="14.00">uid :varchar</text>
<text text-anchor="start" x="494" y="-459.8" font-family="Times,serif" font-size="14.00">address :varchar</text>
<text text-anchor="start" x="494" y="-444.8" font-family="Times,serif" font-size="14.00">blocked :boolean</text>
<text text-anchor="start" x="494" y="-429.8" font-family="Times,serif" font-size="14.00">role :integer</text>
<text text-anchor="start" x="494" y="-414.8" font-family="Times,serif" font-size="14.00">premium :datetime</text>
</g>
<!-- User&#45;&gt;Auction -->
<g id="edge3" class="edge"><title>User&#45;&gt;Auction</title>
<path fill="none" stroke="#69d6d7" d="M582.588,-398.908C581.351,-392.435 580.124,-386.016 578.916,-379.695"/>
<ellipse fill="none" stroke="#69d6d7" cx="583.353" cy="-402.913" rx="4.00001" ry="4.00001"/>
<polygon fill="#69d6d7" stroke="#69d6d7" points="578.912,-379.673 581.455,-369.006 577.974,-374.762 577.035,-369.851 577.035,-369.851 577.035,-369.851 577.974,-374.762 572.615,-370.695 578.912,-379.673 578.912,-379.673"/>
</g>
<!-- User&#45;&gt;Bid -->
<g id="edge2" class="edge"><title>User&#45;&gt;Bid</title>
<path fill="none" stroke="#9b84e4" d="M657.388,-398.838C668.201,-323.824 672.992,-236.162 657,-158 655.186,-149.133 652.519,-140.073 649.402,-131.232"/>
<ellipse fill="none" stroke="#9b84e4" cx="656.768" cy="-403.029" rx="4.00001" ry="4.00001"/>
<polygon fill="#9b84e4" stroke="#9b84e4" points="649.358,-131.113 650.078,-120.171 647.61,-126.429 645.862,-121.744 645.862,-121.744 645.862,-121.744 647.61,-126.429 641.646,-123.317 649.358,-131.113 649.358,-131.113"/>
</g>
</g>
</svg>
