<?xml version="1.0" encoding="UTF-8" standalone="no"?>
<!DOCTYPE svg PUBLIC "-//W3C//DTD SVG 1.1//EN"
 "http://www.w3.org/Graphics/SVG/1.1/DTD/svg11.dtd">
<!-- Generated by graphviz version 2.36.0 (20140111.2315)
 -->
<!-- Title: models_diagram Pages: 1 -->
<svg width="558pt" height="230pt"
 viewBox="0.00 0.00 558.00 230.00" xmlns="http://www.w3.org/2000/svg" xmlns:xlink="http://www.w3.org/1999/xlink">
<g id="graph0" class="graph" transform="scale(1 1) rotate(0) translate(4 226)">
<title>models_diagram</title>
<polygon fill="none" stroke="none" points="-4,4 -4,-226 554,-226 554,4 -4,4"/>
<!-- _diagram_info -->
<g id="node1" class="node"><title>_diagram_info</title>
<text text-anchor="start" x="7.5" y="-207.6" font-family="Times,serif" font-size="13.00">Models diagram</text>
<text text-anchor="start" x="7.5" y="-193.6" font-family="Times,serif" font-size="13.00">Date: Apr 02 2017 &#45; 16:13</text>
<text text-anchor="start" x="7.5" y="-179.6" font-family="Times,serif" font-size="13.00">Migration version: 20170326213826</text>
<text text-anchor="start" x="7.5" y="-165.6" font-family="Times,serif" font-size="13.00">Generated by RailRoady 1.5.2</text>
<text text-anchor="start" x="7.5" y="-151.6" font-family="Times,serif" font-size="13.00">http://railroady.prestonlee.com</text>
</g>
<!-- ApplicationRecord -->
<g id="node2" class="node"><title>ApplicationRecord</title>
<ellipse fill="none" stroke="black" cx="371" cy="-183" rx="96.2631" ry="18"/>
<text text-anchor="middle" x="371" y="-179.3" font-family="Times,serif" font-size="14.00">ApplicationRecord</text>
</g>
<!-- Auction -->
<g id="node3" class="node"><title>Auction</title>
<ellipse fill="none" stroke="black" cx="480" cy="-90" rx="46.1964" ry="18"/>
<text text-anchor="middle" x="480" y="-86.3" font-family="Times,serif" font-size="14.00">Auction</text>
</g>
<!-- Bid -->
<g id="node4" class="node"><title>Bid</title>
<ellipse fill="none" stroke="black" cx="517" cy="-18" rx="27" ry="18"/>
<text text-anchor="middle" x="517" y="-14.3" font-family="Times,serif" font-size="14.00">Bid</text>
</g>
<!-- Auction&#45;&gt;Bid -->
<g id="edge1" class="edge"><title>Auction&#45;&gt;Bid</title>
<path fill="none" stroke="#0522b0" d="M492.744,-64.8894C496.212,-58.3278 499.98,-51.1992 503.49,-44.5603"/>
<ellipse fill="none" stroke="#0522b0" cx="490.826" cy="-68.5186" rx="4.00002" ry="4.00002"/>
<polygon fill="#0522b0" stroke="#0522b0" points="503.707,-44.148 512.359,-37.4099 506.044,-39.7275 508.381,-35.307 508.381,-35.307 508.381,-35.307 506.044,-39.7275 504.402,-33.2041 503.707,-44.148 503.707,-44.148"/>
</g>
<!-- User -->
<g id="node5" class="node"><title>User</title>
<ellipse fill="none" stroke="black" cx="518" cy="-183" rx="32.2457" ry="18"/>
<text text-anchor="middle" x="518" y="-179.3" font-family="Times,serif" font-size="14.00">User</text>
</g>
<!-- User&#45;&gt;Auction -->
<g id="edge3" class="edge"><title>User&#45;&gt;Auction</title>
<path fill="none" stroke="#5ed20c" d="M507.787,-157.543C502.613,-145.152 496.323,-130.09 491.038,-117.432"/>
<ellipse fill="none" stroke="#5ed20c" cx="509.489" cy="-161.618" rx="4.00001" ry="4.00001"/>
<polygon fill="#5ed20c" stroke="#5ed20c" points="490.908,-117.121 491.207,-106.159 488.981,-112.507 487.054,-107.893 487.054,-107.893 487.054,-107.893 488.981,-112.507 482.902,-109.627 490.908,-117.121 490.908,-117.121"/>
</g>
<!-- User&#45;&gt;Bid -->
<g id="edge2" class="edge"><title>User&#45;&gt;Bid</title>
<path fill="none" stroke="#3fd926" d="M526.246,-157.545C532.706,-135.238 539.852,-101.376 535,-72 533.536,-63.1389 530.783,-53.768 527.863,-45.4104"/>
<ellipse fill="none" stroke="#3fd926" cx="525.082" cy="-161.383" rx="4.00001" ry="4.00001"/>
<polygon fill="#3fd926" stroke="#3fd926" points="527.782,-45.1925 528.51,-34.2508 526.037,-40.5066 524.293,-35.8208 524.293,-35.8208 524.293,-35.8208 526.037,-40.5066 520.076,-37.3909 527.782,-45.1925 527.782,-45.1925"/>
</g>
</g>
</svg>
